:FULLY-SPECIFIED
:FORCE-ALL-JOINTS-BE-3DOF
:DEGREES
985
root 1.11542 15.153 32.4948 5.37809 -4.67268 364.124
lfemur 8.69963 1.76851 5.16666
ltibia 3.49861e-14 0 0
lfoot -30.105 -11.7143 0
ltoes -33.8762 0 0
rfemur -32.9601 -15.4958 -6.26304
rtibia 50.8354 0 0
rfoot -22.6051 4.99797 0
rtoes -41.8972 0 0
lowerback -1.55952 -0.419402 0.711649
upperback -0.71732 -0.562807 -5.90918
thorax 0.0696762 -0.297417 -6.54228
lowerneck -6.66561 1.13655 5.87464
upperneck 1.06765 0.934706 3.32563
head 1.46878 0.569495 0.0806115
lclavicle -1.19271e-15 -1.90833e-14 0
lhumerus -58.3302 -45.1106 114.756
lradius 55.0431 0 0
lwrist 25.17 0 0
lhand 37.2967 24.4826 0
lfingers 7.12502 0 0
lthumb 60.119 38.1373 0
rclavicle -1.19271e-15 -1.90833e-14 0
rhumerus 3.74617 -25.0279 -0.173623
rradius 28.014 0 0
rwrist -11.3028 0 0
rhand -31.4609 -44.6274 0
rfingers 7.12502 0 0
rthumb -4.72817 -794.555 0
986
root 1.11775 15.154 32.4893 5.34367 -4.65212 364.113
lfemur 8.7032 1.73693 5.17208
ltibia 2.72998e-14 0 0
lfoot -30.1101 -11.6914 0
ltoes -33.8905 0 0
rfemur -32.9002 -15.5229 -6.25876
rtibia 50.774 0 0
rfoot -22.6373 4.9609 0
rtoes -42.0219 0 0
lowerback -1.53561 -0.404164 0.694979
upperback -0.715651 -0.542636 -5.89504
thorax 0.0606358 -0.28727 -6.51709
lowerneck -6.69323 1.14406 5.86608
upperneck 1.10366 0.941116 3.34109
head 1.48529 0.574476 0.0873471
lclavicle -6.04638e-16 -9.2766e-15 0
lhumerus -58.3387 -45.1651 114.815
lradius 55.0472 0 0
lwrist 25.1595 0 0
lhand 37.2841 24.4649 0
lfingers 7.12502 0 0
lthumb 60.1082 38.1309 0
rclavicle -6.04638e-16 -9.2766e-15 0
rhumerus 3.74666 -24.9453 -0.183508
rradius 28.0015 0 0
rwrist -11.2611 0 0
rhand -31.4419 -44.5515 0
rfingers 7.12502 0 0
rthumb -4.7098 -794.479 0
987
root 1.12008 15.1551 32.4839 5.30925 -4.63157 364.101
lfemur 8.70678 1.70534 5.1775
ltibia 1.96134e-14 0 0
lfoot -30.1151 -11.6686 0
ltoes -33.9047 0 0
rfemur -32.8404 -15.5501 -6.25448
rtibia 50.7126 0 0
rfoot -22.6694 4.92384 0
rtoes -42.1466 0 0
lowerback -1.51169 -0.388926 0.67831
upperback -0.713983 -0.522466 -5.88089
thorax 0.0515953 -0.277124 -6.4919
lowerneck -6.72085 1.15158 5.85753
upperneck 1.13966 0.947526 3.35656
head 1.5018 0.579457 0.0940827
lclavicle -1.65667e-17 5.301e-16 0
lhumerus -58.3471 -45.2196 114.875
lradius 55.0512 0 0
lwrist 25.149 0 0
lhand 37.2716 24.4471 0
lfingers 7.12502 0 0
lthumb 60.0975 38.1246 0
rclavicle -1.65667e-17 5.301e-16 0
rhumerus 3.74715 -24.8628 -0.193393
rradius 27.9891 0 0
rwrist -11.2195 0 0
rhand -31.4228 -44.4755 0
rfingers 7.12502 0 0
rthumb -4.69143 -794.404 0
988
root 1.1224 15.1561 32.4784 5.27483 -4.61102 364.09
lfemur 8.71035 1.67375 5.18292
ltibia 1.19271e-14 0 0
lfoot -30.1202 -11.6457 0
ltoes -33.919 0 0
rfemur -32.7805 -15.5772 -6.25019
rtibia 50.6512 0 0
rfoot -22.7015 4.88677 0
rtoes -42.2713 0 0
lowerback -1.48778 -0.373688 0.66164
upperback -0.712314 -0.502296 -5.86675
thorax 0.0425549 -0.266977 -6.46671
lowerneck -6.74847 1.15909 5.84897
upperneck 1.17566 0.953936 3.37202
head 1.51831 0.584438 0.100818
lclavicle 5.71505e-16 1.03368e-14 0
lhumerus -58.3555 -45.2741 114.934
lradius 55.0553 0 0
lwrist 25.1386 0 0
lhand 37.259 24.4294 0
lfingers 7.12502 0 0
lthumb 60.0867 38.1182 0
rclavicle 5.71505e-16 1.03368e-14 0
rhumerus 3.74765 -24.7802 -0.203277
rradius 27.9766 0 0
rwrist -11.1778 0 0
rhand -31.4038 -44.3996 0
rfingers 7.12502 0 0
rthumb -4.67305 -794.328 0
989
root 1.12473 15.1571 32.473 5.24042 -4.59046 364.079
lfemur 8.71392 1.64217 5.18834
ltibia 4.24077e-15 0 0
lfoot -30.1253 -11.6229 0
ltoes -33.9333 0 0
rfemur -32.7206 -15.6043 -6.24591
rtibia 50.5897 0 0
rfoot -22.7337 4.8497 0
rtoes -42.3961 0 0
lowerback -1.46386 -0.358451 0.644971
upperback -0.710646 -0.482125 -5.85261
thorax 0.0335145 -0.25683 -6.44151
lowerneck -6.77609 1.16661 5.84041
upperneck 1.21167 0.960346 3.38748
head 1.53483 0.589419 0.107554
lclavicle 1.15958e-15 2.01435e-14 0
lhumerus -58.364 -45.3285 114.993
lradius 55.0593 0 0
lwrist 25.1281 0 0
lhand 37.2464 24.4117 0
lfingers 7.12502 0 0
lthumb 60.076 38.1118 0
rclavicle 1.15958e-15 2.01435e-14 0
rhumerus 3.74814 -24.6977 -0.213162
rradius 27.9641 0 0
rwrist -11.1361 0 0
rhand -31.3848 -44.3237 0
rfingers 7.12502 0 0
rthumb -4.65468 -794.252 0
990
root 1.12706 15.1582 32.4675 5.206 -4.5699 364.067
lfemur 8.7175 1.61058 5.19376
ltibia -3.44557e-15 0 0
lfoot -30.1303 -11.6 0
ltoes -33.9475 0 0
rfemur -32.6608 -15.6315 -6.24163
rtibia 50.5283 0 0
rfoot -22.7658 4.81264 0
rtoes -42.5208 0 0
lowerback -1.43994 -0.343213 0.628301
upperback -0.708977 -0.461954 -5.83846
thorax 0.024474 -0.246684 -6.41632
lowerneck -6.80371 1.17413 5.83186
upperneck 1.24768 0.966756 3.40295
head 1.55134 0.5944 0.114289
lclavicle 1.74765e-15 2.99502e-14 0
lhumerus -58.3725 -45.383 115.053
lradius 55.0633 0 0
lwrist 25.1176 0 0
lhand 37.2339 24.3939 0
lfingers 7.12502 0 0
lthumb 60.0652 38.1055 0
rclavicle 1.74765e-15 2.99502e-14 0
rhumerus 3.74863 -24.6151 -0.223047
rradius 27.9517 0 0
rwrist -11.0945 0 0
rhand -31.3657 -44.2477 0
rfingers 7.12502 0 0
rthumb -4.63631 -794.177 0
991
root 1.12939 15.1592 32.4621 5.17158 -4.54935 364.056
lfemur 8.72107 1.579 5.19918
ltibia -1.11319e-14 0 0
lfoot -30.1354 -11.5772 0
ltoes -33.9618 0 0
rfemur -32.6009 -15.6586 -6.23735
rtibia 50.4669 0 0
rfoot -22.798 4.77557 0
rtoes -42.6455 0 0
lowerback -1.41603 -0.327975 0.611632
upperback -0.707309 -0.441784 -5.82432
thorax 0.0154336 -0.236537 -6.39113
lowerneck -6.83133 1.18164 5.8233
upperneck 1.28368 0.973166 3.41841
head 1.56785 0.599381 0.121025
lclavicle 2.33572e-15 3.97569e-14 0
lhumerus -58.3809 -45.4375 115.112
lradius 55.0674 0 0
lwrist 25.1071 0 0
lhand 37.2213 24.3762 0
lfingers 7.12502 0 0
lthumb 60.0545 38.0991 0
rclavicle 2.33572e-15 3.97569e-14 0
rhumerus 3.74912 -24.5326 -0.232932
rradius 27.9392 0 0
rwrist -11.0528 0 0
rhand -31.3467 -44.1718 0
rfingers 7.12502 0 0
rthumb -4.61794 -794.101 0
992
root 1.13069 15.1599 32.458 5.15576 -4.47838 364.027
lfemur 8.69035 1.51058 5.22743
ltibia -5.83098e-15 0 0
lfoot -30.1412 -11.5116 0
ltoes -33.9982 0 0
rfemur -32.5372 -15.6919 -6.21726
rtibia 50.4275 0 0
rfoot -22.8054 4.72604 0
rtoes -42.7218 0 0
lowerback -1.41797 -0.334007 0.610835
upperback -0.69635 -0.449206 -5.81726
thorax 0.0270415 -0.239838 -6.38332
lowerneck -6.83245 1.17749 5.85062
upperneck 1.27712 0.965537 3.41987
head 1.56601 0.595586 0.116631
lclavicle 3.2551e-15 3.84317e-14 0
lhumerus -58.3937 -45.504 115.145
lradius 55.0675 0 0
lwrist 25.1543 0 0
lhand 37.2349 24.3786 0
lfingers 7.12502 0 0
lthumb 60.0661 38.0892 0
rclavicle 3.2551e-15 3.84317e-14 0
rhumerus 3.7371 -24.4555 -0.252614
rradius 27.936 0 0
rwrist -11.0554 0 0
rhand -31.3189 -44.1131 0
rfingers 7.12502 0 0
rthumb -4.59113 -794.043 0
993
root 1.132 15.1605 32.4539 5.13995 -4.40742 363.998
lfemur 8.65963 1.44215 5.25567
ltibia -5.30067e-16 0 0
lfoot -30.147 -11.4461 0
ltoes -34.0347 0 0
rfemur -32.4736 -15.7251 -6.19716
rtibia 50.3881 0 0
rfoot -22.8129 4.67651 0
rtoes -42.7981 0 0
lowerback -1.41992 -0.340039 0.610038
upperback -0.685392 -0.456629 -5.8102
thorax 0.0386494 -0.243139 -6.3755
lowerneck -6.83357 1.17334 5.87794
upperneck 1.27056 0.957909 3.42132
head 1.56416 0.59179 0.112237
lclavicle 4.17448e-15 3.71064e-14 0
lhumerus -58.4064 -45.5704 115.177
lradius 55.0676 0 0
lwrist 25.2015 0 0
lhand 37.2485 24.381 0
lfingers 7.12502 0 0
lthumb 60.0777 38.0794 0
rclavicle 4.17448e-15 3.71064e-14 0
rhumerus 3.72507 -24.3783 -0.272295
rradius 27.9328 0 0
rwrist -11.058 0 0
rhand -31.2912 -44.0544 0
rfingers 7.12502 0 0
rthumb -4.56432 -793.985 0
994
root 1.1333 15.1612 32.4497 5.12413 -4.33645 363.968
lfemur 8.62891 1.37373 5.28392
ltibia 4.77085e-15 0 0
lfoot -30.1529 -11.3805 0
ltoes -34.0712 0 0
rfemur -32.4099 -15.7584 -6.17707
rtibia 50.3487 0 0
rfoot -22.8203 4.62697 0
rtoes -42.8744 0 0
lowerback -1.42186 -0.346071 0.60924
upperback -0.674433 -0.464051 -5.80314
thorax 0.0502574 -0.24644 -6.36769
lowerneck -6.83469 1.16919 5.90526
upperneck 1.264 0.95028 3.42278
head 1.56232 0.587995 0.107843
lclavicle 5.09385e-15 3.57812e-14 0
lhumerus -58.4192 -45.6368 115.21
lradius 55.0677 0 0
lwrist 25.2487 0 0
lhand 37.2621 24.3834 0
lfingers 7.12502 0 0
lthumb 60.0893 38.0695 0
rclavicle 5.09385e-15 3.57812e-14 0
rhumerus 3.71305 -24.3012 -0.291977
rradius 27.9297 0 0
rwrist -11.0606 0 0
rhand -31.2634 -43.9957 0
rfingers 7.12502 0 0
rthumb -4.5375 -793.927 0
995
root 1.13461 15.1618 32.4456 5.10831 -4.26548 363.939
lfemur 8.59819 1.30531 5.31217
ltibia 1.00718e-14 0 0
lfoot -30.1587 -11.315 0
ltoes -34.1076 0 0
rfemur -32.3462 -15.7916 -6.15697
rtibia 50.3093 0 0
rfoot -22.8278 4.57744 0
rtoes -42.9508 0 0
lowerback -1.42381 -0.352104 0.608443
upperback -0.663475 -0.471473 -5.79607
thorax 0.0618653 -0.249741 -6.35988
lowerneck -6.83581 1.16503 5.93257
upperneck 1.25744 0.942651 3.42424
head 1.56048 0.5842 0.103449
lclavicle 6.01323e-15 3.4456e-14 0
lhumerus -58.432 -45.7033 115.243
lradius 55.0677 0 0
lwrist 25.2959 0 0
lhand 37.2756 24.3859 0
lfingers 7.12502 0 0
lthumb 60.101 38.0596 0
rclavicle 6.01323e-15 3.4456e-14 0
rhumerus 3.70103 -24.2241 -0.311659
rradius 27.9265 0 0
rwrist -11.0633 0 0
rhand -31.2356 -43.937 0
rfingers 7.12502 0 0
rthumb -4.51069 -793.869 0
996
root 1.13591 15.1624 32.4415 5.0925 -4.19452 363.91
lfemur 8.56747 1.23688 5.34041
ltibia 1.53727e-14 0 0
lfoot -30.1645 -11.2494 0
ltoes -34.1441 0 0
rfemur -32.2826 -15.8248 -6.13687
rtibia 50.2699 0 0
rfoot -22.8353 4.52791 0
rtoes -43.0271 0 0
lowerback -1.42576 -0.358136 0.607646
upperback -0.652516 -0.478896 -5.78901
thorax 0.0734732 -0.253042 -6.35206
lowerneck -6.83693 1.16088 5.95989
upperneck 1.25088 0.935023 3.42569
head 1.55863 0.580404 0.0990555
lclavicle 6.93261e-15 3.31307e-14 0
lhumerus -58.4447 -45.7697 115.275
lradius 55.0678 0 0
lwrist 25.3431 0 0
lhand 37.2892 24.3883 0
lfingers 7.12502 0 0
lthumb 60.1126 38.0498 0
rclavicle 6.93261e-15 3.31307e-14 0
rhumerus 3.689 -24.1469 -0.33134
rradius 27.9233 0 0
rwrist -11.0659 0 0
rhand -31.2079 -43.8783 0
rfingers 7.12502 0 0
rthumb -4.48388 -793.811 0
997
root 1.13722 15.1631 32.4374 5.07668 -4.12355 363.881
lfemur 8.53675 1.16846 5.36866
ltibia 2.06736e-14 0 0
lfoot -30.1703 -11.1839 0
ltoes -34.1805 0 0
rfemur -32.2189 -15.8581 -6.11678
rtibia 50.2305 0 0
rfoot -22.8427 4.47838 0
rtoes -43.1034 0 0
lowerback -1.4277 -0.364168 0.606849
upperback -0.641558 -0.486318 -5.78195
thorax 0.0850811 -0.256343 -6.34425
lowerneck -6.83805 1.15673 5.98721
upperneck 1.24432 0.927394 3.42715
head 1.55679 0.576609 0.0946616
lclavicle 7.85199e-15 3.18055e-14 0
lhumerus -58.4575 -45.8362 115.308
lradius 55.0679 0 0
lwrist 25.3903 0 0
lhand 37.3028 24.3907 0
lfingers 7.12502 0 0
lthumb 60.1242 38.0399 0
rclavicle 7.85199e-15 3.18055e-14 0
rhumerus 3.67698 -24.0698 -0.351022
rradius 27.9201 0 0
rwrist -11.0685 0 0
rhand -31.1801 -43.8196 0
rfingers 7.12502 0 0
rthumb -4.45707 -793.753 0
998
root 1.13784 15.1636 32.435 5.06396 -4.07958 363.861
lfemur 8.51911 1.12493 5.38938
ltibia 1.64329e-14 0 0
lfoot -30.1677 -11.1431 0
ltoes -34.2067 0 0
rfemur -32.1786 -15.8448 -6.10517
rtibia 50.2114 0 0
rfoot -22.8211 4.44308 0
rtoes -43.1135 0 0
lowerback -1.42023 -0.353596 0.591885
upperback -0.636375 -0.471836 -5.78043
thorax 0.0880153 -0.248847 -6.33376
lowerneck -6.86603 1.14526 5.98868
upperneck 1.27218 0.90818 3.43485
head 1.57058 0.568471 0.0963648
lclavicle 6.67585e-15 3.26007e-14 0
lhumerus -58.4769 -45.8663 115.329
lradius 55.1025 0 0
lwrist 25.3892 0 0
lhand 37.2676 24.4141 0
lfingers 7.12502 0 0
lthumb 60.0941 38.095 0
rclavicle 6.67585e-15 3.26007e-14 0
rhumerus 3.62286 -24.0422 -0.32484
rradius 27.9201 0 0
rwrist -11.0552 0 0
rhand -31.164 -43.7694 0
rfingers 7.12502 0 0
rthumb -4.4415 -793.703 0
